<svg xmlns="http://www.w3.org/2000/svg" viewBox="0 0 64 64" role="img" aria-labelledby="title"><title id="title">ABU JASSAR</title><defs><linearGradient id="metal" x1="8" y1="8" x2="56" y2="56" gradientUnits="userSpaceOnUse"><stop stop-color="#f0dc91"/><stop offset=".48" stop-color="#d4af37"/><stop offset="1" stop-color="#806718"/></linearGradient></defs><path fill="#080808" stroke="url(#metal)" stroke-width="2" d="M32 3 57 17v30L32 61 7 47V17z"/><path fill="url(#metal)" d="m18 43 11-26h6l11 26h-7l-2.1-5H26.7l-2 5zm11.2-11h5.4L32 24.8z"/><path fill="#f5f5f5" d="M39 17h7v17.4c0 6.6-3.7 9.6-10.2 9.6-1.3 0-2.6-.2-3.7-.6l2-5.5c.5.2 1 .3 1.6.3 2.2 0 3.3-1.2 3.3-3.8z" opacity=".9"/></svg>
